<?xml version="1.0" standalone="no"?>
<!DOCTYPE svg PUBLIC "-//W3C//DTD SVG 20010904//EN"
 "http://www.w3.org/TR/2001/REC-SVG-20010904/DTD/svg10.dtd">
<svg version="1.0" xmlns="http://www.w3.org/2000/svg"
 width="1080.000000pt" height="1080.000000pt" viewBox="0 0 1080.000000 1080.000000"
 preserveAspectRatio="xMidYMid meet">

<g transform="translate(0.000000,1080.000000) scale(0.100000,-0.100000)"
fill="#000000" stroke="none">
<path d="M4950 10131 c-8 -5 -37 -12 -65 -15 -132 -18 -400 -115 -575 -208
-198 -105 -454 -295 -622 -460 -88 -86 -349 -420 -387 -495 -12 -24 -38 -69
-59 -101 -41 -63 -84 -148 -131 -258 -42 -99 -151 -431 -151 -460 0 -13 -7
-41 -15 -61 -17 -42 -29 -133 -46 -329 -15 -179 6 -480 46 -658 55 -241 114
-438 163 -546 16 -36 46 -105 68 -155 46 -106 53 -120 175 -315 135 -216 320
-438 469 -560 30 -25 57 -47 60 -50 3 -3 48 -37 100 -76 186 -138 454 -279
701 -370 72 -26 276 -79 344 -90 25 -3 50 -13 57 -22 10 -12 13 -136 13 -583
0 -517 -1 -570 -17 -585 -15 -16 -17 -14 -29 27 -17 56 -109 236 -159 308 -56
83 -180 221 -262 292 -187 161 -453 298 -673 348 -55 12 -126 29 -157 37 -44
11 -138 14 -401 14 -316 0 -349 -2 -401 -20 -129 -44 -184 -89 -229 -188 -30
-64 -31 -264 -3 -362 53 -188 70 -242 97 -312 41 -105 174 -365 210 -408 223
-268 290 -333 463 -457 185 -132 361 -207 527 -223 47 -4 103 -13 125 -20 32
-9 374 -10 499 0 47 3 217 -217 317 -410 95 -183 91 -149 97 -850 l6 -615 30
-59 c32 -63 80 -108 162 -151 50 -26 56 -26 190 -23 l139 3 72 43 c77 46 115
91 135 159 7 25 13 266 16 683 l6 645 33 75 c18 41 40 92 47 113 37 98 135
259 230 375 25 30 31 32 89 32 34 0 88 -7 119 -15 68 -18 317 -21 348 -5 11 6
54 15 97 20 249 29 593 225 792 451 36 41 75 85 88 99 12 14 35 43 49 65 15
22 41 56 58 75 17 19 69 114 117 210 134 272 217 560 218 756 0 50 -6 73 -31
120 -42 81 -70 108 -158 151 l-76 38 -375 0 c-415 -1 -436 -3 -640 -66 -388
-120 -746 -405 -911 -726 -34 -65 -64 -122 -69 -126 -4 -5 -15 -1 -24 8 -13
14 -16 41 -15 173 1 279 17 867 24 884 4 10 32 23 73 33 243 62 492 163 726
294 193 109 473 341 635 526 52 61 106 121 119 135 93 101 323 514 408 732 57
147 142 491 152 622 14 174 8 484 -11 606 -71 431 -123 604 -274 910 -132 269
-275 469 -490 685 -189 190 -320 291 -543 417 -131 74 -271 135 -380 168 -41
12 -115 35 -165 51 -185 59 -191 59 -690 59 -253 0 -467 -4 -475 -9z m1174
-307 c81 -21 166 -50 202 -68 16 -9 61 -29 99 -46 39 -17 77 -35 85 -40 8 -6
31 -18 50 -28 42 -22 131 -73 145 -84 315 -245 468 -400 623 -633 170 -256
313 -620 370 -940 38 -213 45 -281 45 -430 -1 -131 -4 -151 -19 -162 -13 -10
-78 -13 -263 -13 -135 0 -269 -3 -296 -6 -40 -5 -54 -3 -72 12 -19 17 -23 40
-43 269 -20 237 -36 332 -84 500 -74 255 -359 640 -604 815 -97 69 -234 138
-389 195 -70 25 -103 43 -105 54 -3 33 3 77 17 121 7 25 25 88 39 140 14 52
40 147 57 210 29 108 49 150 72 150 5 0 37 -7 71 -16z m-1759 -334 c-3 -5 -12
-10 -20 -10 -8 0 -17 5 -20 10 -4 6 5 10 20 10 15 0 24 -4 20 -10z m-335 -169
c0 -5 -7 -14 -16 -22 -13 -10 -17 -10 -24 1 -5 8 -6 18 -4 22 7 11 44 10 44
-1z m1912 -407 c139 -56 178 -76 258 -132 192 -134 354 -327 473 -567 63 -127
84 -200 127 -447 16 -87 23 -366 12 -428 -6 -30 -15 -84 -22 -120 -12 -72 -59
-224 -95 -310 -39 -94 -113 -209 -210 -330 -132 -163 -237 -259 -270 -246 -18
6 -15 15 48 147 67 138 107 271 147 479 25 131 27 347 5 433 -8 32 -15 68 -15
80 0 35 -58 251 -90 336 -43 115 -84 211 -114 266 -70 129 -255 419 -280 440
-7 6 -40 45 -74 89 -66 82 -161 191 -250 284 -29 31 -51 63 -50 71 2 10 21 20
47 27 64 15 215 -16 353 -72z m-2255 44 c-3 -8 -6 -5 -6 6 -1 11 2 17 5 13 3
-3 4 -12 1 -19z m109 -15 c-11 -11 -19 6 -11 24 8 17 8 17 12 0 3 -10 2 -21
-1 -24z m1214 -74 c0 -5 -33 -56 -73 -112 -127 -178 -154 -222 -231 -374 -84
-169 -182 -454 -213 -618 -25 -136 -26 -590 -1 -675 9 -30 19 -75 22 -100 25
-169 196 -494 376 -715 53 -65 80 -105 80 -119 0 -16 -58 -2 -127 30 -212 100
-484 385 -613 644 -59 118 -81 175 -117 305 -21 78 -25 117 -30 295 -5 202 0
261 31 430 20 107 45 176 114 315 147 296 354 515 612 647 123 63 170 76 170
47z m-710 -46 c0 -5 -5 -15 -10 -23 -8 -12 -10 -11 -10 8 0 12 5 22 10 22 6 0
10 -3 10 -7z m1053 -59 c19 -9 42 -29 51 -45 9 -15 24 -30 34 -34 9 -3 31 -24
47 -46 17 -22 54 -68 83 -102 30 -34 65 -75 78 -92 14 -16 48 -57 76 -90 27
-33 59 -78 70 -100 12 -22 31 -54 44 -71 13 -17 24 -35 24 -41 0 -5 9 -18 20
-28 11 -10 22 -27 26 -39 4 -11 14 -32 24 -46 9 -14 23 -42 29 -62 7 -21 16
-38 21 -38 10 0 90 -193 120 -290 12 -41 29 -94 36 -118 8 -23 14 -59 14 -80
0 -20 7 -64 15 -97 20 -83 18 -181 -5 -332 -25 -164 -45 -235 -103 -378 -62
-151 -86 -193 -175 -305 -55 -70 -76 -97 -106 -138 -13 -19 -43 -50 -66 -70
-24 -20 -51 -49 -61 -66 l-18 -30 -11 29 c-12 31 -23 139 -44 421 -7 99 -18
189 -23 200 -6 10 -13 89 -16 174 -4 85 -11 173 -17 195 -5 22 -13 111 -17
199 -6 141 -8 160 -26 177 -29 27 -56 24 -67 -7 -6 -14 -10 -89 -11 -167 0
-78 -4 -173 -10 -212 -5 -38 -13 -205 -19 -370 -11 -348 -30 -504 -59 -493 -5
2 -40 39 -78 83 -73 85 -95 110 -143 164 -17 18 -40 51 -51 72 -10 22 -24 39
-29 39 -5 0 -19 17 -30 38 -26 46 -58 97 -88 143 -58 86 -114 223 -133 323
-11 55 -26 135 -34 177 -46 239 17 654 140 914 23 50 60 128 81 175 21 47 45
94 54 105 33 41 80 114 80 122 0 5 8 18 18 29 10 10 33 42 52 69 44 65 43 63
86 113 40 47 63 52 117 26z m-1483 -444 c0 -11 -4 -20 -10 -20 -5 0 -10 9 -10
20 0 11 5 20 10 20 6 0 10 -9 10 -20z m3177 -1547 c-3 -10 -5 -4 -5 12 0 17 2
24 5 18 2 -7 2 -21 0 -30z m-3146 -90 c-9 -17 -10 -17 -16 0 -4 9 -4 25 0 35
6 16 7 16 16 0 7 -12 7 -24 0 -35z m2949 -167 c0 -8 -4 -18 -10 -21 -5 -3 -10
-4 -10 -1 0 2 -3 11 -6 20 -4 11 -1 16 10 16 9 0 16 -6 16 -14z m-2590 -346
c0 -5 -4 -10 -10 -10 -5 0 -10 5 -10 10 0 6 5 10 10 10 6 0 10 -4 10 -10z m40
-41 c0 -5 -4 -9 -10 -9 -5 0 -10 7 -10 16 0 8 5 12 10 9 6 -3 10 -10 10 -16z
m-500 -29 c0 -5 -5 -10 -11 -10 -5 0 -7 5 -4 10 3 6 8 10 11 10 2 0 4 -4 4
-10z m3150 -165 c0 -19 -4 -35 -10 -35 -11 0 -14 53 -3 63 11 12 13 8 13 -28z
m-1560 -195 c0 -5 -2 -10 -4 -10 -3 0 -8 5 -11 10 -3 6 -1 10 4 10 6 0 11 -4
11 -10z m1100 -210 c0 -5 -9 -10 -20 -10 -11 0 -20 5 -20 10 0 6 9 10 20 10
11 0 20 -4 20 -10z m-1239 -323 c-13 -13 -26 -3 -16 12 3 6 11 8 17 5 6 -4 6
-10 -1 -17z m117 -15 c3 -19 -1 -23 -15 -20 -10 2 -19 14 -21 26 -3 19 1 23
15 20 10 -2 19 -14 21 -26z m102 -52 c0 -5 -4 -10 -10 -10 -5 0 -10 5 -10 10
0 6 5 10 10 10 6 0 10 -4 10 -10z m-1835 -619 c242 -27 567 -150 743 -280 91
-68 240 -218 298 -301 41 -59 130 -231 157 -305 35 -94 97 -340 97 -384 0 -35
5 -37 -225 114 -68 45 -139 87 -230 137 -11 7 -60 31 -110 55 -49 24 -97 48
-105 53 -38 24 -97 53 -121 60 -33 10 -59 -13 -59 -53 0 -27 23 -48 110 -101
58 -35 141 -91 159 -108 8 -7 20 -15 27 -18 18 -7 206 -169 317 -272 79 -75
67 -87 -102 -108 -236 -29 -580 20 -747 105 -187 96 -401 279 -521 445 -34 47
-70 94 -80 106 -17 20 -40 61 -121 219 -20 38 -41 92 -48 120 -7 27 -18 70
-24 95 -7 25 -16 59 -22 75 -20 58 -47 213 -41 237 7 26 47 78 71 92 56 33
357 41 577 17z m4077 -2 c118 -12 144 -21 165 -63 25 -48 -1 -195 -72 -411
-22 -67 -100 -237 -124 -270 -4 -5 -14 -26 -21 -45 -14 -35 -27 -55 -90 -135
-19 -24 -45 -57 -57 -72 -12 -15 -39 -50 -61 -78 -77 -99 -319 -287 -404 -314
-21 -7 -40 -16 -43 -21 -8 -13 -182 -68 -260 -82 -103 -19 -376 -15 -444 5
-30 10 -67 17 -82 17 -17 0 -32 7 -38 19 -9 15 0 29 47 79 59 62 204 189 264
230 18 13 69 49 113 81 44 31 115 77 158 101 70 40 77 47 77 75 0 24 -6 35
-25 43 -37 17 -47 15 -90 -13 -20 -14 -51 -29 -69 -32 -17 -3 -36 -10 -42 -15
-18 -14 -108 -58 -119 -58 -5 0 -50 -26 -100 -57 -168 -106 -300 -192 -313
-203 -17 -15 -95 -50 -101 -45 -7 7 20 167 40 240 33 118 50 169 67 201 10 17
40 78 69 135 28 57 65 120 82 139 18 19 37 41 43 49 134 161 281 270 508 375
233 109 599 158 922 125z m-2255 -1511 c-3 -8 -6 -5 -6 6 -1 11 2 17 5 13 3
-3 4 -12 1 -19z m-277 -278 c0 -5 -2 -10 -4 -10 -3 0 -8 5 -11 10 -3 6 -1 10
4 10 6 0 11 -4 11 -10z m320 -236 c0 -21 -4 -33 -10 -29 -5 3 -10 19 -10 36 0
16 5 29 10 29 6 0 10 -16 10 -36z m70 26 c0 -5 -4 -10 -10 -10 -5 0 -10 5 -10
10 0 6 5 10 10 10 6 0 10 -4 10 -10z m27 -112 c-3 -7 -5 -2 -5 12 0 14 2 19 5
13 2 -7 2 -19 0 -25z m-140 -310 c-3 -7 -5 -2 -5 12 0 14 2 19 5 13 2 -7 2
-19 0 -25z"/>
</g>
</svg>
